<?xml version="1.0" encoding="utf-8"?>
<svg viewBox="0 0 500 500" xmlns="http://www.w3.org/2000/svg">
  <rect width="400" height="400" style="fill: rgb(184, 184, 255);" x="50" y="50"/>
  <rect x="240.024" y="174.488" width="20" height="256" style="fill: rgb(57, 160, 60);"/>
  <circle style="fill: rgb(255, 255, 255); stroke-width: 3px; stroke: rgba(0, 0, 0, 0.23);" cx="250.024" cy="129.488" r="60"/>
  <path style="paint-order: fill; stroke-width: 0px; fill: rgb(13, 125, 34);" d="M 211.313 424.739 C 211.313 424.739 209.818 430.793 230.681 428.406 C 230.756 428.751 243.058 402.997 239.243 370.455 C 239.056 369.673 219.192 261.468 192.683 226.926 C 167.363 193.935 80.664 173.904 99.879 268.177 C 100.249 269.989 134.071 243.345 167.437 262.851 C 194.039 278.403 222.75 372.885 222.375 372.867 C 222.762 403.089 211.313 424.739 211.313 424.739 Z"/>
  <path style="paint-order: fill; stroke-width: 0px; fill: rgb(13, 125, 34);" d="M 374.213 205.261 C 374.213 205.261 372.718 199.207 393.581 201.594 C 393.656 201.249 405.958 227.003 402.143 259.545 C 401.956 260.327 382.092 368.532 355.583 403.074 C 330.263 436.065 243.564 456.096 262.779 361.823 C 263.149 360.011 296.971 386.655 330.337 367.149 C 356.939 351.597 385.65 257.115 385.275 257.133 C 385.662 226.911 374.213 205.261 374.213 205.261 Z" transform="matrix(-1, 0, 0, -1, 662.900513, 631.548706)"/>
  <rect x="210.024" y="364.85" width="80" height="18.068" style="fill: rgb(57, 160, 60);"/>
</svg>