<?xml version="1.0" encoding="utf-8"?>
<svg viewBox="0 0 400 400" xmlns="http://www.w3.org/2000/svg">
  <rect width="400" height="400" style="fill: rgb(184, 184, 255);"/>
  <rect x="190.024" y="124.488" width="20" height="256" style="fill: rgb(57, 160, 60);"/>
  <circle style="fill: rgb(255, 255, 255); stroke-width: 3px; stroke: rgba(0, 0, 0, 0.23);" cx="200.024" cy="79.488" r="60"/>
  <path style="paint-order: fill; stroke-width: 0px; fill: rgb(13, 125, 34);" d="M 161.313 374.739 C 161.313 374.739 159.818 380.793 180.681 378.406 C 180.756 378.751 193.058 352.997 189.243 320.455 C 189.056 319.673 169.192 211.468 142.683 176.926 C 117.363 143.935 30.664 123.904 49.879 218.177 C 50.249 219.989 84.071 193.345 117.437 212.851 C 144.039 228.403 172.75 322.885 172.375 322.867 C 172.762 353.089 161.313 374.739 161.313 374.739 Z"/>
  <path style="paint-order: fill; stroke-width: 0px; fill: rgb(13, 125, 34);" d="M 324.213 155.261 C 324.213 155.261 322.718 149.207 343.581 151.594 C 343.656 151.249 355.958 177.003 352.143 209.545 C 351.956 210.327 332.092 318.532 305.583 353.074 C 280.263 386.065 193.564 406.096 212.779 311.823 C 213.149 310.011 246.971 336.655 280.337 317.149 C 306.939 301.597 335.65 207.115 335.275 207.133 C 335.662 176.911 324.213 155.261 324.213 155.261 Z" transform="matrix(-1, 0, 0, -1, 562.900513, 531.548706)"/>
  <rect x="160.024" y="314.85" width="80" height="18.068" style="fill: rgb(57, 160, 60);"/>
</svg>